<svg width="30" height="30" viewBox="0 0 30 30" fill="none" xmlns="http://www.w3.org/2000/svg">
<path d="M0.00264052 15.0034C0.0393541 15.6214 0.449322 16.1415 1.04286 16.319L12.0325 19.6416L12.4363 27.2168C12.4547 27.5166 12.6566 27.7797 12.9442 27.8776C13.0237 27.9082 13.1094 27.9205 13.1889 27.9205C13.4031 27.9205 13.605 27.8348 13.7519 27.6696L17.6374 23.368L23.1444 27.1801C23.3892 27.3514 23.6768 27.4432 23.9766 27.4432C24.668 27.4432 25.2677 26.9537 25.4145 26.2684L29.9854 2.97361C30.0405 2.70438 29.9364 2.42291 29.7284 2.25158C29.5142 2.07413 29.2266 2.03129 28.9696 2.13532L0.883766 13.5655C0.314706 13.8225 -0.034073 14.3854 0.00264052 15.0034ZM13.8314 25.3383L13.5805 20.5594L16.3952 22.5052L13.8314 25.3383ZM23.9521 25.9196L13.9293 18.9807L27.9845 5.38447L23.9521 25.9196ZM26.4425 4.78481L12.5464 18.2281L1.56909 14.9116L26.4425 4.78481Z" fill="#ABABAB"/>
</svg>
